<svg xmlns="http://www.w3.org/2000/svg" width="169.5" height="32" viewBox="0 0 169.5 32"><defs><style>.a,.b{fill:#ff5a55;}.a{font-size:27px;font-family:WorkSans-SemiBold, Work Sans;font-weight:600;}.c{fill:none;stroke:#ff5a55;stroke-width:3px;}</style></defs><g transform="translate(-101 -64)"><text class="a" transform="translate(126 89)"><tspan x="0" y="0">codenativ</tspan></text><g transform="translate(101 68)"><path class="b" d="M61.138,23.158H52.574a.672.672,0,0,1-.509-.233L42.659,12.018a.672.672,0,0,1,0-.878L52.066.233A.672.672,0,0,1,52.574,0h8.563a.672.672,0,0,1,.509,1.111l-7.418,8.6a.672.672,0,1,1-1.017-.877l6.46-7.49H52.882L44.054,11.579l8.828,10.236h8.255a.672.672,0,0,1,0,1.344Z" transform="translate(-42.495)"/><path class="b" d="M57.348,151.535l9.407,10.907h8.563l-9.407-10.907,0,0-4.266-4.946Z" transform="translate(-56.676 -139.956)"/><path class="b" d="M61.137,148.933H52.574a.672.672,0,0,1-.509-.233l-9.407-10.907a.672.672,0,0,1,0-.879l4.3-4.949a.672.672,0,0,1,.507-.231h0a.672.672,0,0,1,.508.233l4.266,4.946a.65.65,0,0,1,.042.054l9.363,10.856a.672.672,0,0,1-.509,1.111Zm-8.256-1.344h6.789l-8.449-9.8q-.022-.026-.042-.054l-3.715-4.307-3.409,3.924Z" transform="translate(-42.495 -125.775)"/></g><line class="c" x2="14" transform="translate(256.5 87.5)"/></g></svg>