<svg xmlns="http://www.w3.org/2000/svg" width="24.255" height="29.083" viewBox="0 0 24.255 29.083"><defs><style>.a{fill:#ff5a55;}</style></defs><path class="a" d="M65.907,29.083H55.153a.844.844,0,0,1-.639-.293L42.7,15.092a.844.844,0,0,1,0-1.1L54.514.293A.844.844,0,0,1,55.153,0H65.907a.844.844,0,0,1,.639,1.395L57.23,12.2a.844.844,0,1,1-1.278-1.1l8.113-9.406H55.539L44.453,14.541,55.539,27.4H65.907a.844.844,0,0,1,0,1.687Z" transform="translate(-42.495)"/><path class="a" d="M57.348,152.8l11.814,13.7H79.916L68.1,152.8l0,0-5.357-6.212Z" transform="translate(-56.504 -138.26)"/><path class="a" d="M65.906,153.333H55.152a.844.844,0,0,1-.639-.293L42.7,139.343a.844.844,0,0,1,0-1.1l5.4-6.215a.844.844,0,0,1,.637-.29h0a.844.844,0,0,1,.637.293l5.357,6.212a.818.818,0,0,1,.053.068l11.758,13.633a.844.844,0,0,1-.639,1.395Zm-10.367-1.687h8.526l-10.611-12.3q-.028-.033-.053-.068l-4.665-5.409-4.281,4.928Z" transform="translate(-42.495 -124.25)"/></svg>